HIERARCHY
ROOT pelvis
{
	OFFSET 0.003123 -0.351407 0.012037
	CHANNELS 6 Xposition Yposition Zposition Zrotation Yrotation Xrotation 
	JOINT left_hip
	{
		OFFSET 0.058189 -0.092763 -0.026001
		CHANNELS 3 Zrotation Yrotation Xrotation
		JOINT left_knee
		{
			OFFSET 0.054695 -0.378753 -0.009396
			CHANNELS 3 Zrotation Yrotation Xrotation
			JOINT left_ankle
			{
				OFFSET -0.043453 -0.403059 -0.031876
				CHANNELS 3 Zrotation Yrotation Xrotation
				JOINT left_foot
				{
					OFFSET 0.047257 -0.057997 0.118216
					CHANNELS 3 Zrotation Yrotation Xrotation
					End Site
					{
						OFFSET 0.000000 0.000000 0.000000
					}
				}
			}
		}
	}
	JOINT right_hip
	{
		OFFSET -0.063267 -0.103908 -0.021250
		CHANNELS 3 Zrotation Yrotation Xrotation
		JOINT right_knee
		{
			OFFSET -0.044210 -0.362380 -0.016824
			CHANNELS 3 Zrotation Yrotation Xrotation
			JOINT right_ankle
			{
				OFFSET 0.015417 -0.410728 -0.020192
				CHANNELS 3 Zrotation Yrotation Xrotation
				JOINT right_foot
				{
					OFFSET -0.038812 -0.058328 0.119049
					CHANNELS 3 Zrotation Yrotation Xrotation
					End Site
					{
						OFFSET 0.000000 0.000000 0.000000
					}
				}
			}
		}
	}
	JOINT spine_1
	{
		OFFSET -0.002763 0.109891 -0.027618
		CHANNELS 3 Zrotation Yrotation Xrotation
		JOINT spine_2
		{
			OFFSET 0.009448 0.131853 -0.005940
			CHANNELS 3 Zrotation Yrotation Xrotation
			JOINT spine_3
			{
				OFFSET -0.011330 0.052235 0.028447
				CHANNELS 3 Zrotation Yrotation Xrotation
				JOINT neck
				{
					OFFSET -0.012164 0.165167 -0.031615
					CHANNELS 3 Zrotation Yrotation Xrotation
					JOINT head
					{
						OFFSET 0.024783 0.160452 0.020737
						CHANNELS 3 Zrotation Yrotation Xrotation
						End Site
						{
							OFFSET 0.000000 0.000000 0.000000
						}
					}
				}
				JOINT left_collar
				{
					OFFSET 0.046364 0.084944 -0.007220
					CHANNELS 3 Zrotation Yrotation Xrotation
					JOINT left_shoulder
					{
						OFFSET 0.119239 0.057728 -0.015461
						CHANNELS 3 Zrotation Yrotation Xrotation
						JOINT left_elbow
						{
							OFFSET 0.254123 -0.072151 -0.042459
							CHANNELS 3 Zrotation Yrotation Xrotation
							JOINT left_wrist
							{
								OFFSET 0.251987 0.023221 -0.002472
								CHANNELS 3 Zrotation Yrotation Xrotation
								JOINT left_index_1
								{
									OFFSET 0.101902 -0.008688 0.019351
									CHANNELS 3 Zrotation Yrotation Xrotation
									JOINT left_index_2
									{
										OFFSET 0.030149 -0.011154 0.001151
										CHANNELS 3 Zrotation Yrotation Xrotation
										JOINT left_index_3
										{
											OFFSET 0.006504 -0.021577 -0.002433
											CHANNELS 3 Zrotation Yrotation Xrotation
											End Site
											{
												OFFSET 0.000000 0.000000 0.000000
											}
										}
									}
								}
								JOINT left_middle_1
								{
									OFFSET 0.109398 -0.006328 -0.003981
									CHANNELS 3 Zrotation Yrotation Xrotation
									JOINT left_middle_2
									{
										OFFSET 0.026472 -0.015218 -0.004641
										CHANNELS 3 Zrotation Yrotation Xrotation
										JOINT left_middle_3
										{
											OFFSET 0.005022 -0.023347 -0.001911
											CHANNELS 3 Zrotation Yrotation Xrotation
											End Site
											{
												OFFSET 0.000000 0.000000 0.000000
											}
										}
									}
								}
								JOINT left_pinky_1
								{
									OFFSET 0.084047 -0.014539 -0.043750
									CHANNELS 3 Zrotation Yrotation Xrotation
									JOINT left_pinky_2
									{
										OFFSET 0.012124 -0.014448 -0.005375
										CHANNELS 3 Zrotation Yrotation Xrotation
										JOINT left_pinky_3
										{
											OFFSET 0.003798 -0.018853 0.000167
											CHANNELS 3 Zrotation Yrotation Xrotation
											End Site
											{
												OFFSET 0.000000 0.000000 0.000000
											}
										}
									}
								}
								JOINT left_ring_1
								{
									OFFSET 0.097444 -0.009268 -0.027345
									CHANNELS 3 Zrotation Yrotation Xrotation
									JOINT left_ring_2
									{
										OFFSET 0.023561 -0.016057 -0.001895
										CHANNELS 3 Zrotation Yrotation Xrotation
										JOINT left_ring_3
										{
											OFFSET 0.004257 -0.023548 0.000814
											CHANNELS 3 Zrotation Yrotation Xrotation
											End Site
											{
												OFFSET 0.000000 0.000000 0.000000
											}
										}
									}
								}
								JOINT left_thumb_1
								{
									OFFSET 0.040636 -0.017977 0.025611
									CHANNELS 3 Zrotation Yrotation Xrotation
									JOINT left_thumb_2
									{
										OFFSET 0.021637 -0.017639 0.011623
										CHANNELS 3 Zrotation Yrotation Xrotation
										JOINT left_thumb_3
										{
											OFFSET 0.024002 -0.008356 0.006548
											CHANNELS 3 Zrotation Yrotation Xrotation
											End Site
											{
												OFFSET 0.000000 0.000000 0.000000
											}
										}
									}
								}
							}
						}
					}
				}
				JOINT right_collar
				{
					OFFSET -0.047695 0.084339 -0.013400
					CHANNELS 3 Zrotation Yrotation Xrotation
					JOINT right_shoulder
					{
						OFFSET -0.102578 0.053524 -0.012669
						CHANNELS 3 Zrotation Yrotation Xrotation
						JOINT right_elbow
						{
							OFFSET -0.271150 -0.036492 -0.026467
							CHANNELS 3 Zrotation Yrotation Xrotation
							JOINT right_wrist
							{
								OFFSET -0.249267 -0.004533 -0.015325
								CHANNELS 3 Zrotation Yrotation Xrotation
								JOINT right_index_1
								{
									OFFSET -0.099881 -0.011783 0.019600
									CHANNELS 3 Zrotation Yrotation Xrotation
									JOINT right_index_2
									{
										OFFSET -0.030148 -0.011154 0.001151
										CHANNELS 3 Zrotation Yrotation Xrotation
										JOINT right_index_3
										{
											OFFSET -0.006505 -0.021577 -0.002432
											CHANNELS 3 Zrotation Yrotation Xrotation
											End Site
											{
												OFFSET 0.000000 0.000000 0.000000
											}
										}
									}
								}
								JOINT right_middle_1
								{
									OFFSET -0.107376 -0.009422 -0.003734
									CHANNELS 3 Zrotation Yrotation Xrotation
									JOINT right_middle_2
									{
										OFFSET -0.026472 -0.015218 -0.004641
										CHANNELS 3 Zrotation Yrotation Xrotation
										JOINT right_middle_3
										{
											OFFSET -0.005022 -0.023347 -0.001911
											CHANNELS 3 Zrotation Yrotation Xrotation
											End Site
											{
												OFFSET 0.000000 0.000000 0.000000
											}
										}
									}
								}
								JOINT right_pinky_1
								{
									OFFSET -0.082027 -0.017634 -0.043503
									CHANNELS 3 Zrotation Yrotation Xrotation
									JOINT right_pinky_2
									{
										OFFSET -0.012123 -0.014448 -0.005374
										CHANNELS 3 Zrotation Yrotation Xrotation
										JOINT right_pinky_3
										{
											OFFSET -0.003798 -0.018852 0.000167
											CHANNELS 3 Zrotation Yrotation Xrotation
											End Site
											{
												OFFSET 0.000000 0.000000 0.000000
											}
										}
									}
								}
								JOINT right_ring_1
								{
									OFFSET -0.095423 -0.012362 -0.027099
									CHANNELS 3 Zrotation Yrotation Xrotation
									JOINT right_ring_2
									{
										OFFSET -0.023561 -0.016057 -0.001895
										CHANNELS 3 Zrotation Yrotation Xrotation
										JOINT right_ring_3
										{
											OFFSET -0.004257 -0.023548 0.000816
											CHANNELS 3 Zrotation Yrotation Xrotation
											End Site
											{
												OFFSET 0.000000 0.000000 0.000000
											}
										}
									}
								}
								JOINT right_thumb_1
								{
									OFFSET -0.038613 -0.021074 0.025861
									CHANNELS 3 Zrotation Yrotation Xrotation
									JOINT right_thumb_2
									{
										OFFSET -0.021636 -0.017639 0.011623
										CHANNELS 3 Zrotation Yrotation Xrotation
										JOINT right_thumb_3
										{
											OFFSET -0.024004 -0.008353 0.006547
											CHANNELS 3 Zrotation Yrotation Xrotation
											End Site
											{
												OFFSET 0.000000 0.000000 0.000000
											}
										}
									}
								}
							}
						}
					}
				}
			}
		}
	}
}
MOTION
Frames: 4
Frame Time: 0.050000
0.002559 0.931431 -0.036369 2.263000 1.133433 -6.976735 0.422989 1.129143 8.009989 0.206056 -0.011030 -0.046270 -0.330475 -2.484375 -2.058366 0.000000 0.000000 0.000000 -8.913107 -0.262095 11.891630 8.508467 -0.423563 -1.137738 -4.942089 -7.962890 -4.008046 0.000000 0.000000 0.000000 -3.814716 -0.333081 2.565458 -7.477293 1.253056 -10.098325 10.299744 -0.494961 24.144640 3.316918 -0.057052 -2.885014 0.000000 0.000000 0.000000 -5.085500 -2.814631 0.975520 -57.186992 -4.230305 -9.294978 -28.101826 -27.193391 9.705071 -2.183263 7.685965 15.992477 -15.796303 5.409859 1.312007 3.469191 2.083276 7.786985 0.000000 0.000000 0.000000 -10.406759 -0.988992 -2.581693 -21.175996 3.263780 -0.848612 0.000000 0.000000 0.000000 18.896988 -12.516544 -5.487089 -61.757446 -10.078075 -17.992084 0.000000 0.000000 0.000000 -6.163423 -1.285653 -1.394520 -41.906661 -1.667595 -7.345029 0.000000 0.000000 0.000000 22.495203 26.582758 25.401389 -14.970396 -12.306302 1.896611 0.000000 0.000000 0.000000 1.801715 2.392851 1.115870 49.839595 9.960852 -2.914208 31.179990 34.462080 7.629257 8.299005 -3.829417 20.649335 13.953349 -2.912729 0.672429 -20.099563 0.302731 14.478991 0.000000 0.000000 0.000000 12.977587 3.718477 -4.444517 -1.035038 -1.867274 8.420452 0.000000 0.000000 0.000000 -9.900544 14.532026 -9.848611 27.547853 0.000035 -8.939275 0.000000 0.000000 0.000000 11.318998 3.234793 -3.031301 16.759582 -1.611078 0.144453 0.000000 0.000000 0.000000 -14.469267 -30.365878 29.858774 8.696824 15.805469 -1.590690 0.000000 0.000000 0.000000 
-0.000562 0.941585 -0.012611 3.584757 4.026603 -9.504901 -2.180949 1.057312 6.337151 3.035246 -1.670597 10.236349 -1.350436 -3.663409 -0.979093 0.000000 0.000000 0.000000 -6.635532 -0.520695 9.472916 2.863317 -0.079430 11.609491 -6.534342 -11.700942 -3.671140 0.000000 0.000000 0.000000 -8.188335 -0.562224 5.992404 -7.531356 1.373180 -10.202009 13.411595 0.715631 25.375655 3.898909 -0.218202 -2.355889 0.000000 0.000000 0.000000 -6.569418 -4.825854 1.747707 -56.463443 -12.408304 -8.095458 -27.144233 -22.318651 7.612791 -11.143601 10.356699 23.188473 -26.716659 14.601745 2.048235 -37.644148 13.829125 2.468445 0.000000 0.000000 0.000000 -33.086068 4.377280 -6.870426 -42.514602 4.801500 -7.188281 0.000000 0.000000 0.000000 -47.424600 -22.087671 -38.422574 -13.646187 20.527371 16.199681 0.000000 0.000000 0.000000 -41.170049 -6.555221 -9.093841 -39.738126 0.509825 -2.527097 0.000000 0.000000 0.000000 -4.451227 42.298086 43.555679 52.397211 -4.194203 -27.401973 0.000000 0.000000 0.000000 2.936728 4.046178 2.033082 50.577441 11.814080 -1.832288 27.422663 35.263479 7.052619 17.336228 -5.405931 25.167829 15.585698 -7.808209 2.021530 -5.540439 -7.031022 17.747320 0.000000 0.000000 0.000000 19.878292 4.567216 -6.398924 17.067372 -9.921588 12.035821 0.000000 0.000000 0.000000 -4.106905 28.842606 -26.500167 43.234824 -0.983315 1.588059 0.000000 0.000000 0.000000 21.572008 11.109896 -7.685663 33.897369 -4.253338 1.145925 0.000000 0.000000 0.000000 -12.331776 -37.157580 38.648910 3.285091 19.421279 -5.049413 0.000000 0.000000 0.000000 
-0.004331 0.933365 0.000587 3.618850 4.369439 -7.810249 -1.035389 0.816591 5.245158 1.510975 -1.451847 10.517030 -0.326015 -3.991636 -3.529911 0.000000 0.000000 0.000000 -5.131283 -0.426060 6.603547 1.192354 0.250541 15.167810 -7.760229 -13.481822 -6.269839 0.000000 0.000000 0.000000 -6.866740 -0.513825 8.445531 -7.035478 0.535324 -12.525017 10.354806 -1.058292 27.705063 4.362380 0.016671 -4.171609 0.000000 0.000000 0.000000 -5.593062 -5.848655 2.500628 -58.729913 -18.776972 -6.584073 -21.393028 -19.864161 5.699031 -18.906260 11.805940 26.956141 -20.856430 41.203892 17.899382 -74.273803 20.406639 -10.722563 0.000000 0.000000 0.000000 -47.618352 41.281869 -3.692860 -58.429105 0.624136 -13.910745 0.000000 0.000000 0.000000 -108.998724 54.554740 -73.419343 -19.142919 -4.785583 17.586066 0.000000 0.000000 0.000000 -69.396936 27.748924 -21.367159 -34.779676 -3.506485 2.944852 0.000000 0.000000 0.000000 -24.846339 54.166592 46.402408 89.503412 20.096136 -19.502598 0.000000 0.000000 0.000000 -0.834015 5.692669 2.951029 56.658071 18.323281 0.508722 25.767345 31.559278 5.698474 17.369369 -0.579484 29.907771 17.013255 -13.821860 3.887567 25.005804 -19.082287 10.645776 0.000000 0.000000 0.000000 25.085624 1.571463 -6.313780 51.061000 -10.150828 -7.048577 0.000000 0.000000 0.000000 -12.175123 58.533212 -54.035708 27.630764 4.584188 -30.997330 0.000000 0.000000 0.000000 28.995148 22.943779 -11.125189 53.908999 3.573068 -15.586903 0.000000 0.000000 0.000000 -8.032337 -37.133097 38.929866 -7.514082 20.004402 -10.566864 0.000000 0.000000 0.000000 
-0.001504 0.927321 -0.008652 2.580803 3.906533 -5.882218 1.862358 0.534749 4.524158 -2.074545 -0.507967 7.018191 0.139689 -4.200618 -4.780313 0.000000 0.000000 0.000000 -4.519928 -0.562810 7.896528 1.678681 0.058861 7.969824 -7.693782 -12.802289 -7.810745 0.000000 0.000000 0.000000 -2.523373 -0.317747 3.926822 -7.161778 0.719092 -11.956250 8.239115 -1.070447 28.638730 4.227628 -0.303088 -2.433604 0.000000 0.000000 0.000000 -8.140523 -3.571233 1.063113 -57.881250 -17.219577 -6.934583 -19.117987 -20.676043 5.522368 -15.950073 7.627362 26.689004 -19.878281 22.555395 7.321611 -61.833786 29.204982 2.646851 0.000000 0.000000 0.000000 -36.633678 26.446237 -2.814703 -55.336878 11.663693 -2.637774 0.000000 0.000000 0.000000 -84.070616 44.097236 -62.685090 -27.345740 -7.594566 36.437050 0.000000 0.000000 0.000000 -52.875298 17.337435 -12.059763 -42.713403 1.260593 3.069074 0.000000 0.000000 0.000000 -9.498181 35.310713 36.420422 55.669989 3.294962 -23.425166 0.000000 0.000000 0.000000 -2.208044 6.315967 3.288862 57.353641 20.169904 1.260967 25.227904 29.371684 4.980625 7.471133 0.899886 21.471461 21.350879 -6.060646 1.108017 31.596365 -15.081883 7.745654 0.000000 0.000000 0.000000 30.013045 2.602536 -7.212594 41.151842 -3.961473 -7.332167 0.000000 0.000000 0.000000 16.554337 45.703351 -32.584903 34.004790 3.732977 -23.397425 0.000000 0.000000 0.000000 33.380875 18.252996 -9.221236 41.657514 3.392255 -12.728693 0.000000 0.000000 0.000000 -7.910377 -35.513663 36.965345 -10.138032 17.544568 -10.751856 0.000000 0.000000 0.000000 
